<?xml version="1.0" encoding="utf-8"?>
<!-- Generator: Adobe Illustrator 22.0.1, SVG Export Plug-In . SVG Version: 6.00 Build 0)  -->
<svg version="1.1" id="Layer_1" xmlns="http://www.w3.org/2000/svg" xmlns:xlink="http://www.w3.org/1999/xlink" x="0px" y="0px"
	 viewBox="0 0 24 24" style="enable-background:new 0 0 24 24; fill: white;" xml:space="preserve">
<style type="text/css">
	.st0{fill:#white;}
	.st1{fill:#white;}
</style>
<path d="M20.52924,6.99808H6.00727V3.48245c0-0.27637-0.22363-0.5-0.5-0.5H3.47065c-0.27637,0-0.5,0.22363-0.5,0.5
	s0.22363,0.5,0.5,0.5h1.53662v3.50592c-0.00006,0.00342-0.00195,0.00629-0.00195,0.0097v5.22705
	c0,1.78809,1.26465,3.24316,2.81885,3.24316h10.4043c1.54443,0,2.80078-1.45508,2.80078-3.24316V7.49808
	C21.02924,7.22171,20.80561,6.99808,20.52924,6.99808z M20.02924,12.72513c0,1.23682-0.80762,2.24316-1.80078,2.24316H7.82417
	c-0.98584,0-1.81885-1.02734-1.81885-2.24316V8.78708c0.00006-0.00342,0.00195-0.00629,0.00195-0.0097v-0.7793h14.02197V12.72513z
	 M8.98286,16.99319c-1.10547,0-2.00439,0.89893-2.00439,2.00439s0.89893,2.00439,2.00439,2.00439s2.00439-0.89893,2.00439-2.00439
	S10.08833,16.99319,8.98286,16.99319z M8.98286,20.00198c-0.55371,0-1.00439-0.45068-1.00439-1.00439
	s0.45068-1.00439,1.00439-1.00439s1.00439,0.45068,1.00439,1.00439S9.53657,20.00198,8.98286,20.00198z M17.00971,16.99319
	c-1.10547,0-2.00439,0.89893-2.00439,2.00439s0.89893,2.00439,2.00439,2.00439s2.00439-0.89893,2.00439-2.00439
	S18.11518,16.99319,17.00971,16.99319z M17.00971,20.00198c-0.55371,0-1.00439-0.45068-1.00439-1.00439
	s0.45068-1.00439,1.00439-1.00439s1.00439,0.45068,1.00439,1.00439S17.56342,20.00198,17.00971,20.00198z"/>
</svg>
